<?xml version="1.0" encoding="UTF-8"?>
<svg width="2950" height="842.4" viewBox="0 0 2950 842.4" xmlns="http://www.w3.org/2000/svg" version="1.1">
	<g transform="scale(1.44)">
		<circle cx="140" cy="90" r="90" fill="#24d17c" />
		<circle cx="485" cy="90" r="90" fill="#24d17c" />
		<rect x="0" y="250" width="625" height="165" fill="#24d17c" />
		<path transform="translate(140,585)" d="M -100 0 A 1 1 0 0 1 100 0" fill="#24d17c" />
		<path transform="translate(485,585)" d="M -100 0 A 1 1 0 0 1 100 0" fill="#24d17c" />
	</g>


	<g transform="translate(1185,17.4)" fill-rule="evenodd">
		<path d="
			M 300.5 13.002
			L 219.5 13.002
			L 219.5 146.502
			L 81 146.502
			L 81 13.002
			L 0 13.002
			L 0 358.002
			L 81 358.002
			L 81 213.502
			L 219.5 213.502
			L 219.5 358.002
			L 300.5 358.002
			L 300.5 13.002 Z

			M 617.5 235.502
			A 146.981 146.981 0 0 0 614.667 206.318
			C 603.629 151.769 561.317 116.452 505.175 108.642
			A 175.47 175.47 0 0 0 481 107.002
			C 408.146 107.002 351.868 149.749 344.759 220.17
			A 152.612 152.612 0 0 0 344 235.502
			A 145.547 145.547 0 0 0 346.855 264.663
			C 359.527 326.7 413.055 363.502 481 363.502
			A 172.133 172.133 0 0 0 515.986 360.017
			C 570.515 348.697 609.928 310.348 616.523 252.912
			A 152.569 152.569 0 0 0 617.5 235.502 Z
			M 533.739 257.578
			A 82.928 82.928 0 0 0 537 234.002
			A 92.501 92.501 0 0 0 536.85 228.706
			C 534.909 194.874 514.286 170.002 481 170.002
			C 453.682 170.002 435.246 186.287 428.199 210.426
			A 84.206 84.206 0 0 0 425 234.002
			C 425 263.373 438.274 286.917 461.957 294.993
			A 58.741 58.741 0 0 0 481 298.002
			C 507.934 298.002 526.577 281.717 533.739 257.578 Z

			M 738.5 13.002
			L 658.5 13.002
			L 658.5 358.002
			L 738.5 358.002
			L 738.5 13.002 Z

			M 879.5 41.502
			A 41.569 41.569 0 0 0 874.509 21.242
			C 869.873 12.842 862.213 6.487 852.399 3.005
			A 54.931 54.931 0 0 0 834 0.002
			A 54.881 54.881 0 0 0 815.5 3.041
			C 800.754 8.311 790.894 20.077 788.881 35.528
			A 46.236 46.236 0 0 0 788.5 41.502
			C 788.5 60.433 799.108 74.49 815.982 80.199
			A 56.152 56.152 0 0 0 834 83.002
			A 55.958 55.958 0 0 0 852.37 80.079
			C 866.663 75.118 876.391 64.124 878.874 49.24
			A 46.986 46.986 0 0 0 879.5 41.502 Z
			M 874 111.502
			L 794 111.502
			L 794 358.002
			L 874 358.002
			L 874 111.502 Z
			
			M 1188 13.002
			L 1108 13.002
			L 1108 141.502
			C 1100 129.502 1075 107.002 1030 107.002
			A 125.47 125.47 0 0 0 1001.46 110.188
			C 946.734 122.948 913.5 172.697 913.5 235.002
			C 913.5 305.841 956.461 360.927 1025.127 363.414
			A 134.613 134.613 0 0 0 1030 363.502
			A 115.418 115.418 0 0 0 1065.939 358.007
			A 89.988 89.988 0 0 0 1111 326.002
			L 1112.5 325.502
			L 1112 358.002
			L 1188 358.002
			L 1188 13.002 Z
			M 1053 298.002
			A 64.011 64.011 0 0 0 1063.232 297.198
			C 1091.972 292.547 1110.5 268.108 1110.5 234.002
			A 89.576 89.576 0 0 0 1110.145 225.97
			C 1107.873 200.728 1094.817 181.813 1074.88 173.974
			A 59.506 59.506 0 0 0 1053 170.002
			A 64.389 64.389 0 0 0 1043.018 170.764
			C 1014.046 175.308 995 199.792 995 234.002
			A 88.091 88.091 0 0 0 995.312 241.469
			C 997.459 266.71 1010.546 285.706 1030.381 293.763
			A 59.809 59.809 0 0 0 1053 298.002 Z
			
			M 1237 132.002
			L 1258 184.002
			C 1266.793 178.374 1284.989 169.777 1305.973 165.174
			A 129.327 129.327 0 0 1 1333.5 162.002
			C 1362.74 162.002 1380.709 173.274 1383.59 195.055
			A 49.146 49.146 0 0 1 1384 201.502
			L 1384 207.002
			L 1322 209.502
			C 1276.5 211.502 1226 230.002 1226 285.002
			A 86.181 86.181 0 0 0 1228.093 304.303
			C 1237.549 345.55 1277.48 363.502 1315.5 363.502
			A 104.916 104.916 0 0 0 1329.583 362.579
			C 1360.111 358.449 1376.554 341.458 1385.783 332.219
			A 557.362 557.362 0 0 1 1386 332.002
			L 1387.5 358.002
			L 1464 358.002
			L 1464 219.002
			A 203.841 203.841 0 0 0 1463.161 199.939
			C 1461.779 185.246 1458.71 173.145 1454.088 162.857
			A 85.102 85.102 0 0 0 1434.5 135.502
			A 94.242 94.242 0 0 0 1409.569 118.856
			C 1394.832 112.089 1376.462 108.018 1352.267 107.169
			A 278.511 278.511 0 0 0 1342.5 107.002
			A 226.01 226.01 0 0 0 1314.835 108.721
			C 1281.228 112.866 1253.628 123.688 1237 132.002 Z
			M 1345 252.002
			L 1384.5 249.502
			L 1384.5 290.002
			A 33.651 33.651 0 0 1 1382.316 293.237
			C 1375.95 301.636 1362.442 312.502 1343.5 312.502
			A 51.517 51.517 0 0 1 1327.199 310.039
			C 1314.334 305.741 1306.137 296.007 1306.002 282.346
			A 34.746 34.746 0 0 1 1306 282.002
			A 26.777 26.777 0 0 1 1310.631 266.275
			C 1315.634 259.142 1324.539 254.559 1336.607 252.772
			A 79.51 79.51 0 0 1 1345 252.002 Z

			M 1680 111.502
			L 1624.5 270.002
			L 1568.5 111.502
			L 1485 111.502
			L 1582.5 350.502
			L 1573.5 372.002
			A 39.34 39.34 0 0 1 1569.558 379.543
			C 1567.691 382.253 1565.708 384.094 1563.637 385.346
			A 25.938 25.938 0 0 1 1549.5 388.002
			A 46.933 46.933 0 0 1 1543.385 387.553
			C 1532.328 386.081 1520 381.502 1520 381.502
			L 1504 440.502
			C 1504 440.502 1530.5 452.502 1572.5 452.502
			A 80.72 80.72 0 0 0 1590.652 450.563
			C 1619.298 443.972 1635.732 420.924 1650.362 386.623
			A 374.234 374.234 0 0 0 1652.5 381.502
			L 1762.5 111.502
			L 1680 111.502 Z
		" />
	</g>
	<g transform="translate(1185,498.4)" fill-rule="evenodd">
		<path d="
			M 95.55 0.003
			L 0 0.003
			L 0 338.103
			L 47.53 338.103
			L 47.53 192.573
			L 83.79 192.573
			L 171.99 338.103
			L 229.32 338.103
			L 132.79 187.673
			C 168.56 180.813 209.72 154.353 209.72 95.063
			C 209.72 64.193 196.98 39.693 176.89 23.523
			A 100.771 100.771 0 0 0 148.224 8.078
			C 132.984 2.695 115.361 0.003 95.55 0.003 Z
			M 82.32 153.373
			L 47.53 153.373
			L 47.53 38.713
			L 82.32 38.713
			C 105.84 38.713 123.97 39.693 139.16 50.963
			C 151.705 59.866 158.234 71.108 160.128 86.07
			A 79.454 79.454 0 0 1 160.72 96.043
			C 160.72 116.623 154.35 130.343 139.16 141.613
			C 123.97 152.393 105.84 153.373 82.32 153.373 Z

			M 365.623 100.975
			A 143.865 143.865 0 0 0 362.6 100.943
			A 136.936 136.936 0 0 0 325.733 105.882
			C 278.45 119.086 244.222 157.797 239.643 210.315
			A 139.821 139.821 0 0 0 239.12 222.463
			C 239.12 292.443 289.311 340.066 355.35 343.316
			A 147.523 147.523 0 0 0 362.6 343.493
			C 431.69 343.493 485.59 294.983 485.59 222.463
			C 485.59 151.487 433.256 102.396 365.623 100.975 Z
			M 362.6 303.313
			A 80.771 80.771 0 0 0 382.646 300.872
			C 417.303 292.013 438.06 260.021 438.06 220.993
			C 438.06 183.611 418.606 152.495 385.919 142.519
			A 79.632 79.632 0 0 0 362.6 139.163
			C 326.539 139.163 301.133 160.472 291.238 190.949
			A 97.281 97.281 0 0 0 286.65 220.993
			C 286.65 267.053 315.56 303.313 362.6 303.313 Z
			
			M 584.57 141.613
			L 583.59 141.613
			L 583.59 0.003
			L 537.04 0.003
			L 537.04 338.103
			L 582.12 338.103
			L 582.12 301.353
			L 583.1 301.353
			A 96.357 96.357 0 0 0 603.665 323.663
			C 620.698 336.99 641.653 343.493 664.93 343.493
			A 122.816 122.816 0 0 0 693.623 340.202
			C 739.377 329.229 769.679 291.824 776.606 243.224
			A 154.091 154.091 0 0 0 778.12 221.483
			C 778.12 154.402 735.951 103.251 670.398 101.019
			A 131.889 131.889 0 0 0 665.91 100.943
			A 113.903 113.903 0 0 0 641.868 103.404
			C 631.434 105.653 622.015 109.391 613.596 114.401
			A 94.976 94.976 0 0 0 584.57 141.613 Z
			M 726.515 248.777
			A 105.175 105.175 0 0 0 730.1 220.993
			C 730.1 182.353 711.193 151.478 678.143 142.101
			A 80.503 80.503 0 0 0 656.11 139.163
			C 619.197 139.163 593.993 161.347 585.139 193.743
			A 103.383 103.383 0 0 0 581.63 220.993
			A 111.453 111.453 0 0 0 582.172 232.048
			C 586.263 273.088 613.32 303.313 656.11 303.313
			C 692.841 303.313 717.673 281.042 726.515 248.777 Z
			
			M 937.943 100.975
			A 143.865 143.865 0 0 0 934.92 100.943
			A 136.936 136.936 0 0 0 898.053 105.882
			C 850.77 119.086 816.542 157.797 811.963 210.315
			A 139.821 139.821 0 0 0 811.44 222.463
			C 811.44 292.443 861.631 340.066 927.67 343.316
			A 147.523 147.523 0 0 0 934.92 343.493
			C 1004.01 343.493 1057.91 294.983 1057.91 222.463
			C 1057.91 151.487 1005.576 102.396 937.943 100.975 Z
			M 934.92 303.313
			A 80.771 80.771 0 0 0 954.966 300.872
			C 989.623 292.013 1010.38 260.021 1010.38 220.993
			C 1010.38 183.611 990.926 152.495 958.239 142.519
			A 79.632 79.632 0 0 0 934.92 139.163
			C 898.859 139.163 873.453 160.472 863.558 190.949
			A 97.281 97.281 0 0 0 858.97 220.993
			C 858.97 267.053 887.88 303.313 934.92 303.313 Z
			
			M 1163.26 248.923
			L 1163.26 143.573
			L 1219.12 143.573
			L 1219.12 105.843
			L 1163.26 105.843
			L 1163.26 36.263
			L 1116.22 36.263
			L 1116.22 105.843
			L 1081.92 105.843
			L 1081.92 143.573
			L 1116.22 143.573
			L 1116.22 249.903
			A 664.298 664.298 0 0 0 1116.386 265.824
			C 1117.024 292.235 1119.711 307.08 1127.98 319.483
			A 50.452 50.452 0 0 0 1153.628 339.772
			C 1160.404 342.184 1168.283 343.493 1177.47 343.493
			A 118.879 118.879 0 0 0 1189.479 342.878
			C 1206.87 341.111 1219 336.117 1220.029 335.683
			A 9.545 9.545 0 0 0 1220.1 335.653
			L 1217.16 297.923
			A 17.827 17.827 0 0 1 1216.569 298.213
			C 1214.409 299.233 1206.531 302.629 1196.228 303.224
			A 53.387 53.387 0 0 1 1193.15 303.313
			C 1183.505 303.313 1177.506 300.969 1173.255 296.851
			A 25.652 25.652 0 0 1 1169.14 291.553
			A 42.528 42.528 0 0 1 1164.701 277.714
			C 1163.512 270.437 1163.286 261.728 1163.262 251.079
			A 972.452 972.452 0 0 1 1163.26 248.923 Z
			
			M 1315.16 28.913
			A 28.034 28.034 0 0 0 1293.586 1.096
			A 35.045 35.045 0 0 0 1284.78 0.003
			A 33.983 33.983 0 0 0 1268.612 3.853
			A 27.71 27.71 0 0 0 1253.91 28.913
			A 27.928 27.928 0 0 0 1274.829 56.479
			A 36.267 36.267 0 0 0 1284.78 57.823
			C 1302.376 57.823 1315.097 45.634 1315.16 29.037
			A 32.619 32.619 0 0 0 1315.16 28.913 Z
			M 1308.3 105.353
			L 1261.26 105.353
			L 1261.26 338.103
			L 1308.3 338.103
			L 1308.3 105.353 Z
			
			M 1551.83 168.563
			L 1568.49 134.263
			C 1566.04 131.323 1540.56 100.943 1478.33 100.943
			C 1418.193 100.943 1362.24 144.642 1359.375 216.192
			A 144.479 144.479 0 0 0 1359.26 221.973
			C 1359.26 296.453 1414.14 343.493 1476.86 343.493
			A 189.627 189.627 0 0 0 1491.066 342.973
			C 1538.132 339.438 1559.621 318.805 1567.875 310.349
			A 300.333 300.333 0 0 1 1569.96 308.213
			L 1553.3 273.913
			C 1553.3 273.913 1530.969 300.185 1490.032 303.059
			A 104.099 104.099 0 0 1 1482.74 303.313
			A 80.083 80.083 0 0 1 1457.168 299.284
			C 1426.393 288.951 1406.79 259.55 1406.79 220.503
			A 94.388 94.388 0 0 1 1409.69 196.87
			C 1418.783 161.649 1448.164 140.143 1482.25 140.143
			A 114.639 114.639 0 0 1 1495.734 140.919
			C 1528.006 144.739 1544.898 161.631 1551.83 168.563 Z
			
			M 1738.03 160.233
			L 1757.63 131.323
			A 90.684 90.684 0 0 0 1743.176 118.796
			C 1728.527 108.62 1707.995 100.943 1678.25 100.943
			C 1637.09 100.943 1599.85 124.463 1599.85 167.583
			A 66.638 66.638 0 0 0 1601.177 181.091
			C 1606.061 204.744 1623.402 216.727 1635.906 223.093
			A 106.85 106.85 0 0 0 1636.6 223.443
			C 1647.38 229.323 1652.77 230.303 1668.45 235.693
			A 92.819 92.819 0 0 0 1668.584 235.739
			C 1684.339 241.128 1720.88 248.996 1720.88 274.403
			C 1720.88 299.883 1697.85 307.723 1676.29 307.723
			A 69.916 69.916 0 0 1 1665.684 306.869
			C 1651.234 304.642 1634.983 298.096 1621.469 287.684
			A 84.014 84.014 0 0 1 1607.69 274.403
			L 1585.15 301.843
			A 103.182 103.182 0 0 0 1623.125 332.223
			C 1638.438 339.45 1656.2 343.493 1675.8 343.493
			C 1693.966 343.493 1709.683 340.153 1722.952 333.924
			A 83.835 83.835 0 0 0 1740.48 322.913
			A 64.967 64.967 0 0 0 1763.576 282.155
			A 79.029 79.029 0 0 0 1764.49 269.993
			A 61.308 61.308 0 0 0 1762.748 255.24
			C 1759.543 242.259 1752.435 233.073 1745.87 226.873
			C 1740.881 221.884 1733.818 217.413 1726.756 213.838
			A 123.808 123.808 0 0 0 1718.92 210.213
			C 1709.12 206.293 1700.3 203.353 1687.56 198.943
			A 198.891 198.891 0 0 1 1663.944 190.184
			C 1658.783 187.759 1654.192 185.028 1650.56 181.82
			A 22.881 22.881 0 0 1 1641.99 164.153
			A 28.35 28.35 0 0 1 1645.059 150.739
			C 1649.869 141.635 1660.071 136.492 1673.799 135.444
			A 71.365 71.365 0 0 1 1679.23 135.243
			A 85.309 85.309 0 0 1 1726.635 150.617
			A 76.26 76.26 0 0 1 1738.03 160.233 Z
		" />
	</g>
</svg>
